<mxfile host="65bd71144e" scale="1" border="0">
    <diagram id="onXaXl_xWz-26s0CSIOz" name="ビール？？？">
        <mxGraphModel dx="751" dy="744" grid="1" gridSize="10" guides="1" tooltips="1" connect="1" arrows="1" fold="1" page="1" pageScale="1" pageWidth="850" pageHeight="1100" math="0" shadow="0">
            <root>
                <mxCell id="0"/>
                <mxCell id="woN81auEj3mcqy7KODG3-6" value="背景" style="locked=1;" parent="0"/>
                <mxCell id="woN81auEj3mcqy7KODG3-7" value="" style="ellipse;whiteSpace=wrap;html=1;aspect=fixed;strokeColor=#333333;strokeWidth=10;fillColor=#333333;" parent="woN81auEj3mcqy7KODG3-6" vertex="1">
                    <mxGeometry x="40" y="40" width="280" height="280" as="geometry"/>
                </mxCell>
                <mxCell id="woN81auEj3mcqy7KODG3-11" value="" style="ellipse;whiteSpace=wrap;html=1;aspect=fixed;strokeColor=none;strokeWidth=10;fillColor=#E6E6E6;perimeterSpacing=0;" parent="woN81auEj3mcqy7KODG3-6" vertex="1">
                    <mxGeometry x="49.11" y="50" width="260" height="260" as="geometry"/>
                </mxCell>
                <mxCell id="1" value="液体" style="locked=1;" parent="0"/>
                <mxCell id="woN81auEj3mcqy7KODG3-3" value="" style="shape=document;whiteSpace=wrap;html=1;boundedLbl=1;strokeColor=none;strokeWidth=0;fillColor=#FF9933;direction=west;" parent="1" vertex="1">
                    <mxGeometry x="66" y="153" width="230" height="67" as="geometry"/>
                </mxCell>
                <mxCell id="woN81auEj3mcqy7KODG3-4" value="" style="shape=or;whiteSpace=wrap;html=1;strokeColor=none;strokeWidth=0;fillColor=#FF9933;direction=south;" parent="1" vertex="1">
                    <mxGeometry x="70" y="190" width="220" height="110" as="geometry"/>
                </mxCell>
                <mxCell id="woN81auEj3mcqy7KODG3-13" value="背景_ふち" style="locked=1;" parent="0"/>
                <mxCell id="woN81auEj3mcqy7KODG3-15" value="" style="ellipse;whiteSpace=wrap;html=1;aspect=fixed;strokeColor=#E6E6E6;strokeWidth=12;fillColor=none;perimeterSpacing=0;gradientColor=none;" parent="woN81auEj3mcqy7KODG3-13" vertex="1">
                    <mxGeometry x="60" y="60" width="240" height="240" as="geometry"/>
                </mxCell>
                <mxCell id="woN81auEj3mcqy7KODG3-25" value="" style="ellipse;whiteSpace=wrap;html=1;aspect=fixed;strokeColor=#CCCCCC;strokeWidth=5;fillColor=none;perimeterSpacing=0;" parent="woN81auEj3mcqy7KODG3-13" vertex="1">
                    <mxGeometry x="64.38" y="64.38" width="231.25" height="231.25" as="geometry"/>
                </mxCell>
                <mxCell id="woN81auEj3mcqy7KODG3-16" value="グラス上" style="locked=1;" parent="0"/>
                <mxCell id="woN81auEj3mcqy7KODG3-28" value="" style="ellipse;whiteSpace=wrap;html=1;strokeColor=none;strokeWidth=5;fillColor=#E6E6E6;gradientColor=none;" parent="woN81auEj3mcqy7KODG3-16" vertex="1">
                    <mxGeometry x="113.75" y="60" width="132.5" height="60" as="geometry"/>
                </mxCell>
                <mxCell id="woN81auEj3mcqy7KODG3-27" value="" style="ellipse;whiteSpace=wrap;html=1;strokeColor=none;strokeWidth=5;fillColor=#E6E6E6;gradientColor=none;" parent="woN81auEj3mcqy7KODG3-16" vertex="1">
                    <mxGeometry x="87.5" y="68" width="185" height="68" as="geometry"/>
                </mxCell>
                <mxCell id="woN81auEj3mcqy7KODG3-17" value="" style="ellipse;whiteSpace=wrap;html=1;strokeColor=#CCCCCC;strokeWidth=5;fillColor=#E6E6E6;gradientColor=none;" parent="woN81auEj3mcqy7KODG3-16" vertex="1">
                    <mxGeometry x="90" y="90" width="180" height="43" as="geometry"/>
                </mxCell>
                <mxCell id="woN81auEj3mcqy7KODG3-30" value="泡" style="locked=1;" parent="0"/>
                <mxCell id="woN81auEj3mcqy7KODG3-31" value="" style="ellipse;whiteSpace=wrap;html=1;aspect=fixed;shadow=0;sketch=0;strokeColor=#E6E6E6;strokeWidth=5;fillColor=#E6E6E6;gradientColor=none;" parent="woN81auEj3mcqy7KODG3-30" vertex="1">
                    <mxGeometry x="230" y="260" width="10" height="10" as="geometry"/>
                </mxCell>
                <mxCell id="woN81auEj3mcqy7KODG3-32" value="" style="ellipse;whiteSpace=wrap;html=1;aspect=fixed;shadow=0;sketch=0;strokeColor=#E6E6E6;strokeWidth=5;fillColor=#E6E6E6;gradientColor=none;" parent="woN81auEj3mcqy7KODG3-30" vertex="1">
                    <mxGeometry x="230" y="220" width="10" height="10" as="geometry"/>
                </mxCell>
                <mxCell id="woN81auEj3mcqy7KODG3-33" value="" style="ellipse;whiteSpace=wrap;html=1;aspect=fixed;shadow=0;sketch=0;strokeColor=#E6E6E6;strokeWidth=5;fillColor=#E6E6E6;gradientColor=none;" parent="woN81auEj3mcqy7KODG3-30" vertex="1">
                    <mxGeometry x="250" y="240" width="10" height="10" as="geometry"/>
                </mxCell>
                <mxCell id="gz5MbNSsjPVkRxkjNnPb-1" value="" style="ellipse;whiteSpace=wrap;html=1;aspect=fixed;shadow=0;sketch=0;strokeColor=#E6E6E6;strokeWidth=5;fillColor=#E6E6E6;gradientColor=none;" parent="woN81auEj3mcqy7KODG3-30" vertex="1">
                    <mxGeometry x="260" y="200" width="20" height="20" as="geometry"/>
                </mxCell>
                <mxCell id="qck0bDyD4l9X-uwEaKS--1" value="ロゴ" style="locked=1;" parent="0"/>
                <mxCell id="ctAcwHcmxXAFrqJ0K5Kp-1" value="DC" style="ellipse;whiteSpace=wrap;html=1;aspect=fixed;shadow=0;sketch=0;fillStyle=auto;strokeColor=none;strokeWidth=5;fillColor=none;gradientColor=none;fontColor=#F0F0F0;fontSize=50;fontStyle=1" parent="qck0bDyD4l9X-uwEaKS--1" vertex="1">
                    <mxGeometry x="150" y="190" width="60" height="60" as="geometry"/>
                </mxCell>
            </root>
        </mxGraphModel>
    </diagram>
    <diagram name="ハイボール" id="7LfGjbmu8eiaS4zaYMI0">
        <mxGraphModel dx="751" dy="744" grid="1" gridSize="10" guides="1" tooltips="1" connect="1" arrows="1" fold="1" page="1" pageScale="1" pageWidth="850" pageHeight="1100" math="0" shadow="0">
            <root>
                <mxCell id="zX6XUiAoFi4MaXgwyIQ4-0"/>
                <mxCell id="zX6XUiAoFi4MaXgwyIQ4-1" value="背景" style="locked=1;" parent="zX6XUiAoFi4MaXgwyIQ4-0"/>
                <mxCell id="zX6XUiAoFi4MaXgwyIQ4-2" value="" style="ellipse;whiteSpace=wrap;html=1;aspect=fixed;strokeColor=#333333;strokeWidth=10;fillColor=#333333;" parent="zX6XUiAoFi4MaXgwyIQ4-1" vertex="1">
                    <mxGeometry x="40" y="40" width="280" height="280" as="geometry"/>
                </mxCell>
                <mxCell id="bQm7-eFxkr2XoenzQgG9-1" value="グラス背景" style="locked=1;" parent="zX6XUiAoFi4MaXgwyIQ4-0"/>
                <mxCell id="bQm7-eFxkr2XoenzQgG9-2" value="" style="shape=cylinder3;whiteSpace=wrap;html=1;boundedLbl=1;backgroundOutline=1;size=15;shadow=0;sketch=0;strokeColor=none;strokeWidth=5;fillColor=#E6E6E6;gradientColor=none;" parent="bQm7-eFxkr2XoenzQgG9-1" vertex="1">
                    <mxGeometry x="120" y="80" width="120" height="200" as="geometry"/>
                </mxCell>
                <mxCell id="bQm7-eFxkr2XoenzQgG9-5" value="液体" style="locked=1;" parent="zX6XUiAoFi4MaXgwyIQ4-0"/>
                <mxCell id="bQm7-eFxkr2XoenzQgG9-13" value="" style="rhombus;whiteSpace=wrap;html=1;shadow=0;sketch=0;fillStyle=auto;strokeColor=none;strokeWidth=10;fillColor=#FFFFCC;gradientColor=none;" parent="bQm7-eFxkr2XoenzQgG9-5" vertex="1">
                    <mxGeometry x="160" y="110" width="80" height="70" as="geometry"/>
                </mxCell>
                <mxCell id="bQm7-eFxkr2XoenzQgG9-12" value="" style="rhombus;whiteSpace=wrap;html=1;shadow=0;sketch=0;fillStyle=auto;strokeColor=none;strokeWidth=10;fillColor=#FFFFCC;gradientColor=none;" parent="bQm7-eFxkr2XoenzQgG9-5" vertex="1">
                    <mxGeometry x="120" y="120" width="50" height="50" as="geometry"/>
                </mxCell>
                <mxCell id="bQm7-eFxkr2XoenzQgG9-6" value="" style="shape=document;whiteSpace=wrap;html=1;boundedLbl=1;shadow=0;sketch=0;strokeColor=none;strokeWidth=10;fillColor=#FF9933;gradientColor=none;direction=west;" parent="bQm7-eFxkr2XoenzQgG9-5" vertex="1">
                    <mxGeometry x="120" y="140" width="120" height="40" as="geometry"/>
                </mxCell>
                <mxCell id="bQm7-eFxkr2XoenzQgG9-8" value="" style="ellipse;whiteSpace=wrap;html=1;shadow=0;sketch=0;strokeColor=none;strokeWidth=10;fillColor=#FF9933;gradientColor=none;" parent="bQm7-eFxkr2XoenzQgG9-5" vertex="1">
                    <mxGeometry x="120" y="250" width="120" height="30" as="geometry"/>
                </mxCell>
                <mxCell id="bQm7-eFxkr2XoenzQgG9-9" value="" style="rounded=0;whiteSpace=wrap;html=1;shadow=0;sketch=0;strokeColor=none;strokeWidth=10;fillColor=#FF9933;gradientColor=none;" parent="bQm7-eFxkr2XoenzQgG9-5" vertex="1">
                    <mxGeometry x="120" y="160" width="120" height="110" as="geometry"/>
                </mxCell>
                <mxCell id="bQm7-eFxkr2XoenzQgG9-3" value="グラスふち" style="locked=1;" parent="zX6XUiAoFi4MaXgwyIQ4-0"/>
                <mxCell id="bQm7-eFxkr2XoenzQgG9-4" value="" style="shape=cylinder3;whiteSpace=wrap;html=1;boundedLbl=1;backgroundOutline=1;size=15;shadow=0;sketch=0;strokeColor=default;strokeWidth=10;fillColor=none;gradientColor=none;" parent="bQm7-eFxkr2XoenzQgG9-3" vertex="1">
                    <mxGeometry x="120" y="80" width="120" height="200" as="geometry"/>
                </mxCell>
                <mxCell id="bQm7-eFxkr2XoenzQgG9-15" value="ロゴ" style="locked=1;" parent="zX6XUiAoFi4MaXgwyIQ4-0"/>
                <mxCell id="bQm7-eFxkr2XoenzQgG9-16" value="DC" style="ellipse;whiteSpace=wrap;html=1;aspect=fixed;shadow=0;sketch=0;fillStyle=auto;strokeColor=#F0F0F0;strokeWidth=5;fillColor=#FF9933;gradientColor=none;fontColor=#F0F0F0;fontSize=29;fontStyle=1" parent="bQm7-eFxkr2XoenzQgG9-15" vertex="1">
                    <mxGeometry x="150" y="180" width="60" height="60" as="geometry"/>
                </mxCell>
            </root>
        </mxGraphModel>
    </diagram>
    <diagram name="[ボツ]アイコン" id="gK7fZcU6XxFyOrLltpx0">
        <mxGraphModel dx="751" dy="744" grid="1" gridSize="10" guides="1" tooltips="1" connect="1" arrows="1" fold="1" page="1" pageScale="1" pageWidth="827" pageHeight="1169" math="0" shadow="0">
            <root>
                <mxCell id="0"/>
                <mxCell id="1" parent="0"/>
                <mxCell id="PPWlYoQmIogD_CFI06df-25" value="" style="endArrow=none;html=1;rounded=0;strokeWidth=5;strokeColor=#ffffff;" parent="1" edge="1">
                    <mxGeometry width="50" height="50" relative="1" as="geometry">
                        <mxPoint x="50" y="330" as="sourcePoint"/>
                        <mxPoint x="210" y="330" as="targetPoint"/>
                    </mxGeometry>
                </mxCell>
                <mxCell id="PPWlYoQmIogD_CFI06df-26" value="" style="endArrow=none;html=1;rounded=0;strokeWidth=5;strokeColor=#ffffff;" parent="1" edge="1">
                    <mxGeometry width="50" height="50" relative="1" as="geometry">
                        <mxPoint x="60" y="340" as="sourcePoint"/>
                        <mxPoint x="200" y="340" as="targetPoint"/>
                    </mxGeometry>
                </mxCell>
                <mxCell id="PPWlYoQmIogD_CFI06df-55" value="" style="endArrow=none;html=1;rounded=0;strokeWidth=5;strokeColor=#ffffff;" parent="1" edge="1">
                    <mxGeometry width="50" height="50" relative="1" as="geometry">
                        <mxPoint x="220" y="180" as="sourcePoint"/>
                        <mxPoint x="280" y="180" as="targetPoint"/>
                    </mxGeometry>
                </mxCell>
                <mxCell id="PPWlYoQmIogD_CFI06df-56" value="" style="endArrow=none;html=1;rounded=0;strokeWidth=5;strokeColor=#ffffff;" parent="1" edge="1">
                    <mxGeometry width="50" height="50" relative="1" as="geometry">
                        <mxPoint x="220" y="190" as="sourcePoint"/>
                        <mxPoint x="280" y="190" as="targetPoint"/>
                    </mxGeometry>
                </mxCell>
                <mxCell id="PPWlYoQmIogD_CFI06df-57" value="" style="endArrow=none;html=1;rounded=0;strokeWidth=5;strokeColor=#ffffff;" parent="1" edge="1">
                    <mxGeometry width="50" height="50" relative="1" as="geometry">
                        <mxPoint x="220" y="200" as="sourcePoint"/>
                        <mxPoint x="280" y="200" as="targetPoint"/>
                    </mxGeometry>
                </mxCell>
                <mxCell id="PPWlYoQmIogD_CFI06df-59" value="" style="endArrow=none;html=1;rounded=0;strokeWidth=5;strokeColor=#ffffff;" parent="1" edge="1">
                    <mxGeometry width="50" height="50" relative="1" as="geometry">
                        <mxPoint x="250" y="210" as="sourcePoint"/>
                        <mxPoint x="280" y="210" as="targetPoint"/>
                    </mxGeometry>
                </mxCell>
                <mxCell id="PPWlYoQmIogD_CFI06df-60" value="" style="endArrow=none;html=1;rounded=0;strokeWidth=5;strokeColor=#ffffff;" parent="1" edge="1">
                    <mxGeometry width="50" height="50" relative="1" as="geometry">
                        <mxPoint x="250" y="220" as="sourcePoint"/>
                        <mxPoint x="280" y="220" as="targetPoint"/>
                    </mxGeometry>
                </mxCell>
                <mxCell id="PPWlYoQmIogD_CFI06df-61" value="" style="endArrow=none;html=1;rounded=0;strokeWidth=5;strokeColor=#ffffff;" parent="1" edge="1">
                    <mxGeometry width="50" height="50" relative="1" as="geometry">
                        <mxPoint x="250" y="230.00000000000023" as="sourcePoint"/>
                        <mxPoint x="280" y="230.00000000000023" as="targetPoint"/>
                    </mxGeometry>
                </mxCell>
                <mxCell id="PPWlYoQmIogD_CFI06df-62" value="" style="endArrow=none;html=1;rounded=0;strokeWidth=5;strokeColor=#ffffff;" parent="1" edge="1">
                    <mxGeometry width="50" height="50" relative="1" as="geometry">
                        <mxPoint x="250" y="240.00000000000023" as="sourcePoint"/>
                        <mxPoint x="280" y="240.00000000000023" as="targetPoint"/>
                    </mxGeometry>
                </mxCell>
                <mxCell id="PPWlYoQmIogD_CFI06df-63" value="" style="endArrow=none;html=1;rounded=0;strokeWidth=5;strokeColor=#ffffff;" parent="1" edge="1">
                    <mxGeometry width="50" height="50" relative="1" as="geometry">
                        <mxPoint x="250" y="250.00000000000023" as="sourcePoint"/>
                        <mxPoint x="280" y="250.00000000000023" as="targetPoint"/>
                    </mxGeometry>
                </mxCell>
                <mxCell id="PPWlYoQmIogD_CFI06df-64" value="" style="endArrow=none;html=1;rounded=0;strokeWidth=5;strokeColor=#ffffff;" parent="1" edge="1">
                    <mxGeometry width="50" height="50" relative="1" as="geometry">
                        <mxPoint x="250" y="260.0000000000002" as="sourcePoint"/>
                        <mxPoint x="280" y="260.0000000000002" as="targetPoint"/>
                    </mxGeometry>
                </mxCell>
                <mxCell id="PPWlYoQmIogD_CFI06df-67" value="" style="endArrow=none;html=1;rounded=0;strokeWidth=5;strokeColor=#ffffff;" parent="1" edge="1">
                    <mxGeometry width="50" height="50" relative="1" as="geometry">
                        <mxPoint x="240" y="270" as="sourcePoint"/>
                        <mxPoint x="270" y="270" as="targetPoint"/>
                    </mxGeometry>
                </mxCell>
                <mxCell id="PPWlYoQmIogD_CFI06df-68" value="" style="endArrow=none;html=1;rounded=0;strokeWidth=5;strokeColor=#ffffff;startArrow=none;" parent="1" edge="1">
                    <mxGeometry width="50" height="50" relative="1" as="geometry">
                        <mxPoint x="260" y="280" as="sourcePoint"/>
                        <mxPoint x="260" y="280" as="targetPoint"/>
                    </mxGeometry>
                </mxCell>
                <mxCell id="PPWlYoQmIogD_CFI06df-69" value="" style="endArrow=none;html=1;rounded=0;strokeWidth=5;strokeColor=#ffffff;" parent="1" edge="1">
                    <mxGeometry width="50" height="50" relative="1" as="geometry">
                        <mxPoint x="220" y="290" as="sourcePoint"/>
                        <mxPoint x="250" y="290" as="targetPoint"/>
                    </mxGeometry>
                </mxCell>
                <mxCell id="PPWlYoQmIogD_CFI06df-71" value="" style="endArrow=none;html=1;rounded=0;strokeWidth=5;strokeColor=#ffffff;" parent="1" edge="1">
                    <mxGeometry width="50" height="50" relative="1" as="geometry">
                        <mxPoint x="110" y="230" as="sourcePoint"/>
                        <mxPoint x="200" y="230" as="targetPoint"/>
                    </mxGeometry>
                </mxCell>
                <mxCell id="PPWlYoQmIogD_CFI06df-73" value="" style="endArrow=none;html=1;rounded=0;strokeWidth=5;strokeColor=#ffffff;" parent="1" edge="1">
                    <mxGeometry width="50" height="50" relative="1" as="geometry">
                        <mxPoint x="110" y="250" as="sourcePoint"/>
                        <mxPoint x="200" y="250" as="targetPoint"/>
                    </mxGeometry>
                </mxCell>
                <mxCell id="PPWlYoQmIogD_CFI06df-16" value="" style="endArrow=none;html=1;rounded=0;strokeWidth=5;strokeColor=#ffffff;" parent="1" edge="1">
                    <mxGeometry width="50" height="50" relative="1" as="geometry">
                        <mxPoint x="110" y="180" as="sourcePoint"/>
                        <mxPoint x="150" y="180" as="targetPoint"/>
                    </mxGeometry>
                </mxCell>
                <mxCell id="PPWlYoQmIogD_CFI06df-17" value="" style="endArrow=none;html=1;rounded=0;strokeWidth=5;strokeColor=#ffffff;" parent="1" edge="1">
                    <mxGeometry width="50" height="50" relative="1" as="geometry">
                        <mxPoint x="110" y="190" as="sourcePoint"/>
                        <mxPoint x="150" y="190" as="targetPoint"/>
                    </mxGeometry>
                </mxCell>
                <mxCell id="PPWlYoQmIogD_CFI06df-18" value="" style="endArrow=none;html=1;rounded=0;strokeWidth=5;strokeColor=#ffffff;" parent="1" edge="1">
                    <mxGeometry width="50" height="50" relative="1" as="geometry">
                        <mxPoint x="110" y="200" as="sourcePoint"/>
                        <mxPoint x="150" y="200" as="targetPoint"/>
                    </mxGeometry>
                </mxCell>
                <mxCell id="PPWlYoQmIogD_CFI06df-22" value="" style="endArrow=none;html=1;rounded=0;strokeWidth=5;strokeColor=#ffffff;" parent="1" edge="1">
                    <mxGeometry width="50" height="50" relative="1" as="geometry">
                        <mxPoint x="110" y="210" as="sourcePoint"/>
                        <mxPoint x="150" y="210" as="targetPoint"/>
                    </mxGeometry>
                </mxCell>
                <mxCell id="PPWlYoQmIogD_CFI06df-23" value="" style="endArrow=none;html=1;rounded=0;strokeWidth=5;strokeColor=#ffffff;" parent="1" edge="1">
                    <mxGeometry width="50" height="50" relative="1" as="geometry">
                        <mxPoint x="110" y="220" as="sourcePoint"/>
                        <mxPoint x="150" y="220" as="targetPoint"/>
                    </mxGeometry>
                </mxCell>
                <mxCell id="PPWlYoQmIogD_CFI06df-44" value="" style="endArrow=none;html=1;rounded=0;strokeWidth=5;strokeColor=#ffffff;" parent="1" edge="1">
                    <mxGeometry width="50" height="50" relative="1" as="geometry">
                        <mxPoint x="60" y="300" as="sourcePoint"/>
                        <mxPoint x="90" y="300" as="targetPoint"/>
                    </mxGeometry>
                </mxCell>
                <mxCell id="PPWlYoQmIogD_CFI06df-45" value="" style="endArrow=none;html=1;rounded=0;strokeWidth=5;strokeColor=#ffffff;" parent="1" edge="1">
                    <mxGeometry width="50" height="50" relative="1" as="geometry">
                        <mxPoint x="60" y="290" as="sourcePoint"/>
                        <mxPoint x="90" y="290" as="targetPoint"/>
                    </mxGeometry>
                </mxCell>
                <mxCell id="PPWlYoQmIogD_CFI06df-46" value="" style="endArrow=none;html=1;rounded=0;strokeWidth=5;strokeColor=#ffffff;" parent="1" edge="1">
                    <mxGeometry width="50" height="50" relative="1" as="geometry">
                        <mxPoint x="60" y="280" as="sourcePoint"/>
                        <mxPoint x="90" y="280" as="targetPoint"/>
                    </mxGeometry>
                </mxCell>
                <mxCell id="PPWlYoQmIogD_CFI06df-52" value="" style="endArrow=none;html=1;rounded=0;strokeWidth=5;strokeColor=#ffffff;" parent="1" edge="1">
                    <mxGeometry width="50" height="50" relative="1" as="geometry">
                        <mxPoint x="60" y="270" as="sourcePoint"/>
                        <mxPoint x="90" y="270" as="targetPoint"/>
                    </mxGeometry>
                </mxCell>
                <mxCell id="PPWlYoQmIogD_CFI06df-53" value="" style="endArrow=none;html=1;rounded=0;strokeWidth=5;strokeColor=#ffffff;" parent="1" edge="1">
                    <mxGeometry width="50" height="50" relative="1" as="geometry">
                        <mxPoint x="60" y="260" as="sourcePoint"/>
                        <mxPoint x="90" y="260" as="targetPoint"/>
                    </mxGeometry>
                </mxCell>
                <mxCell id="PPWlYoQmIogD_CFI06df-9" value="" style="endArrow=none;html=1;rounded=0;strokeWidth=5;strokeColor=#ffffff;" parent="1" edge="1">
                    <mxGeometry width="50" height="50" relative="1" as="geometry">
                        <mxPoint x="50" y="130" as="sourcePoint"/>
                        <mxPoint x="210" y="130" as="targetPoint"/>
                    </mxGeometry>
                </mxCell>
                <mxCell id="PPWlYoQmIogD_CFI06df-13" value="" style="endArrow=none;html=1;rounded=0;strokeWidth=5;strokeColor=#ffffff;" parent="1" edge="1">
                    <mxGeometry width="50" height="50" relative="1" as="geometry">
                        <mxPoint x="50" y="140" as="sourcePoint"/>
                        <mxPoint x="210" y="140" as="targetPoint"/>
                    </mxGeometry>
                </mxCell>
                <mxCell id="PPWlYoQmIogD_CFI06df-14" value="" style="endArrow=none;html=1;rounded=0;strokeWidth=5;strokeColor=#ffffff;" parent="1" edge="1">
                    <mxGeometry width="50" height="50" relative="1" as="geometry">
                        <mxPoint x="50" y="150" as="sourcePoint"/>
                        <mxPoint x="210" y="150" as="targetPoint"/>
                    </mxGeometry>
                </mxCell>
                <mxCell id="PPWlYoQmIogD_CFI06df-104" value="" style="endArrow=none;html=1;rounded=0;strokeWidth=5;strokeColor=#ffffff;" parent="1" edge="1">
                    <mxGeometry width="50" height="50" relative="1" as="geometry">
                        <mxPoint x="60" y="310" as="sourcePoint"/>
                        <mxPoint x="90" y="310" as="targetPoint"/>
                    </mxGeometry>
                </mxCell>
                <mxCell id="PPWlYoQmIogD_CFI06df-105" value="" style="endArrow=none;html=1;rounded=0;strokeWidth=5;strokeColor=#ffffff;" parent="1" edge="1">
                    <mxGeometry width="50" height="50" relative="1" as="geometry">
                        <mxPoint x="60" y="320" as="sourcePoint"/>
                        <mxPoint x="90" y="320" as="targetPoint"/>
                    </mxGeometry>
                </mxCell>
                <mxCell id="PPWlYoQmIogD_CFI06df-108" value="" style="endArrow=none;html=1;rounded=0;strokeWidth=5;strokeColor=#ffffff;startArrow=none;" parent="1" edge="1">
                    <mxGeometry width="50" height="50" relative="1" as="geometry">
                        <mxPoint x="110" y="170" as="sourcePoint"/>
                        <mxPoint x="150" y="170" as="targetPoint"/>
                    </mxGeometry>
                </mxCell>
                <mxCell id="PPWlYoQmIogD_CFI06df-109" value="" style="endArrow=none;html=1;rounded=0;strokeWidth=5;strokeColor=#ffffff;" parent="1" edge="1">
                    <mxGeometry width="50" height="50" relative="1" as="geometry">
                        <mxPoint x="110" y="160" as="sourcePoint"/>
                        <mxPoint x="150" y="160" as="targetPoint"/>
                    </mxGeometry>
                </mxCell>
                <mxCell id="PPWlYoQmIogD_CFI06df-111" value="" style="endArrow=none;html=1;rounded=0;strokeWidth=5;strokeColor=#ffffff;" parent="1" edge="1">
                    <mxGeometry width="50" height="50" relative="1" as="geometry">
                        <mxPoint x="50" y="110.13" as="sourcePoint"/>
                        <mxPoint x="70" y="110.13" as="targetPoint"/>
                    </mxGeometry>
                </mxCell>
                <mxCell id="PPWlYoQmIogD_CFI06df-115" value="" style="endArrow=none;html=1;rounded=0;strokeWidth=5;strokeColor=#ffffff;" parent="1" edge="1">
                    <mxGeometry width="50" height="50" relative="1" as="geometry">
                        <mxPoint x="40" y="100.13" as="sourcePoint"/>
                        <mxPoint x="60" y="100.13" as="targetPoint"/>
                    </mxGeometry>
                </mxCell>
                <mxCell id="PPWlYoQmIogD_CFI06df-116" value="" style="endArrow=none;html=1;rounded=0;strokeWidth=5;strokeColor=#ffffff;" parent="1" edge="1">
                    <mxGeometry width="50" height="50" relative="1" as="geometry">
                        <mxPoint x="40" y="90.13" as="sourcePoint"/>
                        <mxPoint x="60" y="90.13" as="targetPoint"/>
                    </mxGeometry>
                </mxCell>
                <mxCell id="PPWlYoQmIogD_CFI06df-117" value="" style="endArrow=none;html=1;rounded=0;strokeWidth=5;strokeColor=#ffffff;" parent="1" edge="1">
                    <mxGeometry width="50" height="50" relative="1" as="geometry">
                        <mxPoint x="50" y="80.13" as="sourcePoint"/>
                        <mxPoint x="70" y="80.13" as="targetPoint"/>
                    </mxGeometry>
                </mxCell>
                <mxCell id="PPWlYoQmIogD_CFI06df-118" value="" style="endArrow=none;html=1;rounded=0;strokeWidth=5;strokeColor=#ffffff;" parent="1" edge="1">
                    <mxGeometry width="50" height="50" relative="1" as="geometry">
                        <mxPoint x="60" y="70.13" as="sourcePoint"/>
                        <mxPoint x="80" y="70.13" as="targetPoint"/>
                    </mxGeometry>
                </mxCell>
                <mxCell id="PPWlYoQmIogD_CFI06df-119" value="" style="endArrow=none;html=1;rounded=0;strokeWidth=5;strokeColor=#ffffff;" parent="1" edge="1">
                    <mxGeometry width="50" height="50" relative="1" as="geometry">
                        <mxPoint x="70" y="60.129999999999995" as="sourcePoint"/>
                        <mxPoint x="90" y="60.129999999999995" as="targetPoint"/>
                    </mxGeometry>
                </mxCell>
                <mxCell id="PPWlYoQmIogD_CFI06df-120" value="" style="endArrow=none;html=1;rounded=0;strokeWidth=5;strokeColor=#ffffff;" parent="1" edge="1">
                    <mxGeometry width="50" height="50" relative="1" as="geometry">
                        <mxPoint x="90" y="70.13" as="sourcePoint"/>
                        <mxPoint x="100" y="70.13" as="targetPoint"/>
                    </mxGeometry>
                </mxCell>
                <mxCell id="PPWlYoQmIogD_CFI06df-121" value="" style="endArrow=none;html=1;rounded=0;strokeWidth=5;strokeColor=#ffffff;" parent="1" edge="1">
                    <mxGeometry width="50" height="50" relative="1" as="geometry">
                        <mxPoint x="100" y="60.129999999999995" as="sourcePoint"/>
                        <mxPoint x="110" y="60.129999999999995" as="targetPoint"/>
                    </mxGeometry>
                </mxCell>
                <mxCell id="PPWlYoQmIogD_CFI06df-122" value="" style="endArrow=none;html=1;rounded=0;strokeWidth=5;strokeColor=#ffffff;" parent="1" edge="1">
                    <mxGeometry width="50" height="50" relative="1" as="geometry">
                        <mxPoint x="100" y="50.129999999999995" as="sourcePoint"/>
                        <mxPoint x="120" y="50.129999999999995" as="targetPoint"/>
                    </mxGeometry>
                </mxCell>
                <mxCell id="PPWlYoQmIogD_CFI06df-123" value="" style="endArrow=none;html=1;rounded=0;strokeWidth=5;strokeColor=#ffffff;" parent="1" edge="1">
                    <mxGeometry width="50" height="50" relative="1" as="geometry">
                        <mxPoint x="120" y="40" as="sourcePoint"/>
                        <mxPoint x="150" y="40" as="targetPoint"/>
                    </mxGeometry>
                </mxCell>
                <mxCell id="PPWlYoQmIogD_CFI06df-128" value="" style="endArrow=none;html=1;rounded=0;strokeWidth=5;strokeColor=#ffffff;" parent="1" edge="1">
                    <mxGeometry width="50" height="50" relative="1" as="geometry">
                        <mxPoint x="150" y="50.129999999999995" as="sourcePoint"/>
                        <mxPoint x="170" y="50.129999999999995" as="targetPoint"/>
                    </mxGeometry>
                </mxCell>
                <mxCell id="PPWlYoQmIogD_CFI06df-129" value="" style="endArrow=none;html=1;rounded=0;strokeWidth=5;strokeColor=#ffffff;" parent="1" edge="1">
                    <mxGeometry width="50" height="50" relative="1" as="geometry">
                        <mxPoint x="160" y="60.129999999999995" as="sourcePoint"/>
                        <mxPoint x="180" y="60.129999999999995" as="targetPoint"/>
                    </mxGeometry>
                </mxCell>
                <mxCell id="PPWlYoQmIogD_CFI06df-130" value="" style="endArrow=none;html=1;rounded=0;strokeWidth=5;entryX=0.699;entryY=0.167;entryDx=0;entryDy=0;entryPerimeter=0;strokeColor=#ffffff;" parent="1" edge="1">
                    <mxGeometry width="50" height="50" relative="1" as="geometry">
                        <mxPoint x="170" y="70.13" as="sourcePoint"/>
                        <mxPoint x="200.00099999999998" y="70.06299999999987" as="targetPoint"/>
                    </mxGeometry>
                </mxCell>
                <mxCell id="PPWlYoQmIogD_CFI06df-131" value="" style="endArrow=none;html=1;rounded=0;strokeWidth=5;strokeColor=#ffffff;" parent="1" edge="1">
                    <mxGeometry width="50" height="50" relative="1" as="geometry">
                        <mxPoint x="190" y="80.13" as="sourcePoint"/>
                        <mxPoint x="210" y="80.13" as="targetPoint"/>
                    </mxGeometry>
                </mxCell>
                <mxCell id="PPWlYoQmIogD_CFI06df-132" value="" style="endArrow=none;html=1;rounded=0;strokeWidth=5;strokeColor=#ffffff;" parent="1" edge="1">
                    <mxGeometry width="50" height="50" relative="1" as="geometry">
                        <mxPoint x="200" y="90.13" as="sourcePoint"/>
                        <mxPoint x="220" y="90.13" as="targetPoint"/>
                    </mxGeometry>
                </mxCell>
                <mxCell id="PPWlYoQmIogD_CFI06df-133" value="" style="endArrow=none;html=1;rounded=0;strokeWidth=5;strokeColor=#ffffff;" parent="1" edge="1">
                    <mxGeometry width="50" height="50" relative="1" as="geometry">
                        <mxPoint x="200" y="100.13" as="sourcePoint"/>
                        <mxPoint x="220" y="100.13" as="targetPoint"/>
                    </mxGeometry>
                </mxCell>
                <mxCell id="PPWlYoQmIogD_CFI06df-134" value="" style="endArrow=none;html=1;rounded=0;strokeWidth=5;strokeColor=#ffffff;" parent="1" edge="1">
                    <mxGeometry width="50" height="50" relative="1" as="geometry">
                        <mxPoint x="190" y="110.13" as="sourcePoint"/>
                        <mxPoint x="210" y="110.13" as="targetPoint"/>
                    </mxGeometry>
                </mxCell>
                <mxCell id="PPWlYoQmIogD_CFI06df-24" value="" style="endArrow=none;html=1;rounded=0;strokeWidth=5;strokeColor=#ffffff;" parent="1" edge="1">
                    <mxGeometry width="50" height="50" relative="1" as="geometry">
                        <mxPoint x="110" y="260" as="sourcePoint"/>
                        <mxPoint x="150" y="260" as="targetPoint"/>
                    </mxGeometry>
                </mxCell>
                <mxCell id="PPWlYoQmIogD_CFI06df-29" value="" style="endArrow=none;html=1;rounded=0;strokeWidth=5;strokeColor=#ffffff;" parent="1" edge="1">
                    <mxGeometry width="50" height="50" relative="1" as="geometry">
                        <mxPoint x="110" y="270" as="sourcePoint"/>
                        <mxPoint x="150" y="270" as="targetPoint"/>
                    </mxGeometry>
                </mxCell>
                <mxCell id="PPWlYoQmIogD_CFI06df-48" value="" style="endArrow=none;html=1;rounded=0;strokeWidth=5;strokeColor=#ffffff;" parent="1" edge="1">
                    <mxGeometry width="50" height="50" relative="1" as="geometry">
                        <mxPoint x="110" y="280" as="sourcePoint"/>
                        <mxPoint x="150" y="280" as="targetPoint"/>
                    </mxGeometry>
                </mxCell>
                <mxCell id="PPWlYoQmIogD_CFI06df-49" value="" style="endArrow=none;html=1;rounded=0;strokeWidth=5;strokeColor=#ffffff;" parent="1" edge="1">
                    <mxGeometry width="50" height="50" relative="1" as="geometry">
                        <mxPoint x="110" y="290" as="sourcePoint"/>
                        <mxPoint x="150" y="290" as="targetPoint"/>
                    </mxGeometry>
                </mxCell>
                <mxCell id="PPWlYoQmIogD_CFI06df-50" value="" style="endArrow=none;html=1;rounded=0;strokeWidth=5;strokeColor=#ffffff;" parent="1" edge="1">
                    <mxGeometry width="50" height="50" relative="1" as="geometry">
                        <mxPoint x="110" y="300" as="sourcePoint"/>
                        <mxPoint x="150" y="300" as="targetPoint"/>
                    </mxGeometry>
                </mxCell>
                <mxCell id="PPWlYoQmIogD_CFI06df-106" value="" style="endArrow=none;html=1;rounded=0;strokeWidth=5;strokeColor=#ffffff;" parent="1" edge="1">
                    <mxGeometry width="50" height="50" relative="1" as="geometry">
                        <mxPoint x="110" y="320" as="sourcePoint"/>
                        <mxPoint x="150" y="320" as="targetPoint"/>
                    </mxGeometry>
                </mxCell>
                <mxCell id="PPWlYoQmIogD_CFI06df-107" value="" style="endArrow=none;html=1;rounded=0;strokeWidth=5;strokeColor=#ffffff;" parent="1" edge="1">
                    <mxGeometry width="50" height="50" relative="1" as="geometry">
                        <mxPoint x="110" y="310" as="sourcePoint"/>
                        <mxPoint x="150" y="310" as="targetPoint"/>
                    </mxGeometry>
                </mxCell>
                <mxCell id="4" value="" style="endArrow=none;html=1;rounded=0;strokeWidth=5;strokeColor=#ffffff;" parent="1" edge="1">
                    <mxGeometry width="50" height="50" relative="1" as="geometry">
                        <mxPoint x="110" y="240.00000000000006" as="sourcePoint"/>
                        <mxPoint x="200" y="240" as="targetPoint"/>
                    </mxGeometry>
                </mxCell>
                <mxCell id="7" value="" style="endArrow=none;html=1;rounded=0;strokeWidth=5;strokeColor=#ffffff;" parent="1" edge="1">
                    <mxGeometry width="50" height="50" relative="1" as="geometry">
                        <mxPoint x="70" y="350" as="sourcePoint"/>
                        <mxPoint x="190" y="350" as="targetPoint"/>
                    </mxGeometry>
                </mxCell>
                <mxCell id="15" value="" style="endArrow=none;html=1;rounded=0;strokeWidth=5;strokeColor=#ffffff;" parent="1" edge="1">
                    <mxGeometry width="50" height="50" relative="1" as="geometry">
                        <mxPoint x="230" y="280" as="sourcePoint"/>
                        <mxPoint x="260" y="280" as="targetPoint"/>
                    </mxGeometry>
                </mxCell>
            </root>
        </mxGraphModel>
    </diagram>
    <diagram name="[ボツ]アイコン（背景有）" id="lfiy780QkAt2Ystv8tqv">
        <mxGraphModel dx="751" dy="744" grid="1" gridSize="10" guides="1" tooltips="1" connect="1" arrows="1" fold="1" page="1" pageScale="1" pageWidth="827" pageHeight="1169" math="0" shadow="0">
            <root>
                <mxCell id="8LsEZVAysBrHWdb2zd2m-0"/>
                <mxCell id="8LsEZVAysBrHWdb2zd2m-1" parent="8LsEZVAysBrHWdb2zd2m-0"/>
                <mxCell id="8LsEZVAysBrHWdb2zd2m-2" value="" style="rounded=0;whiteSpace=wrap;html=1;strokeColor=#333333;strokeWidth=5;fillColor=#333333;" parent="8LsEZVAysBrHWdb2zd2m-1" vertex="1">
                    <mxGeometry x="120" y="37" width="30" height="13" as="geometry"/>
                </mxCell>
                <mxCell id="8LsEZVAysBrHWdb2zd2m-3" value="" style="rounded=0;whiteSpace=wrap;html=1;strokeColor=#333333;strokeWidth=5;fillColor=#333333;" parent="8LsEZVAysBrHWdb2zd2m-1" vertex="1">
                    <mxGeometry x="100" y="47" width="70" height="13" as="geometry"/>
                </mxCell>
                <mxCell id="8LsEZVAysBrHWdb2zd2m-4" value="" style="rounded=0;whiteSpace=wrap;html=1;strokeColor=#333333;strokeWidth=5;fillColor=#333333;" parent="8LsEZVAysBrHWdb2zd2m-1" vertex="1">
                    <mxGeometry x="70" y="57" width="110" height="13" as="geometry"/>
                </mxCell>
                <mxCell id="8LsEZVAysBrHWdb2zd2m-5" value="" style="rounded=0;whiteSpace=wrap;html=1;strokeColor=#333333;strokeWidth=5;fillColor=#333333;" parent="8LsEZVAysBrHWdb2zd2m-1" vertex="1">
                    <mxGeometry x="60" y="67" width="140" height="13" as="geometry"/>
                </mxCell>
                <mxCell id="8LsEZVAysBrHWdb2zd2m-6" value="" style="rounded=0;whiteSpace=wrap;html=1;strokeColor=#333333;strokeWidth=5;fillColor=#333333;" parent="8LsEZVAysBrHWdb2zd2m-1" vertex="1">
                    <mxGeometry x="40" y="87" width="180" height="16" as="geometry"/>
                </mxCell>
                <mxCell id="8LsEZVAysBrHWdb2zd2m-7" value="" style="rounded=0;whiteSpace=wrap;html=1;strokeColor=#333333;strokeWidth=5;fillColor=#333333;" parent="8LsEZVAysBrHWdb2zd2m-1" vertex="1">
                    <mxGeometry x="50" y="77" width="160" height="36" as="geometry"/>
                </mxCell>
                <mxCell id="8LsEZVAysBrHWdb2zd2m-8" value="" style="rounded=0;whiteSpace=wrap;html=1;strokeColor=#333333;strokeWidth=5;fillColor=#333333;" parent="8LsEZVAysBrHWdb2zd2m-1" vertex="1">
                    <mxGeometry x="210" y="280" width="40" height="13" as="geometry"/>
                </mxCell>
                <mxCell id="8LsEZVAysBrHWdb2zd2m-9" value="" style="rounded=0;whiteSpace=wrap;html=1;strokeColor=#333333;strokeWidth=5;fillColor=#333333;" parent="8LsEZVAysBrHWdb2zd2m-1" vertex="1">
                    <mxGeometry x="210" y="270" width="50" height="13" as="geometry"/>
                </mxCell>
                <mxCell id="8LsEZVAysBrHWdb2zd2m-10" value="" style="rounded=0;whiteSpace=wrap;html=1;strokeColor=#333333;strokeWidth=5;fillColor=#333333;" parent="8LsEZVAysBrHWdb2zd2m-1" vertex="1">
                    <mxGeometry x="210" y="260" width="60" height="13" as="geometry"/>
                </mxCell>
                <mxCell id="8LsEZVAysBrHWdb2zd2m-11" value="" style="rounded=0;whiteSpace=wrap;html=1;strokeColor=#333333;strokeWidth=5;fillColor=#333333;" parent="8LsEZVAysBrHWdb2zd2m-1" vertex="1">
                    <mxGeometry x="210" y="177" width="70" height="86" as="geometry"/>
                </mxCell>
                <mxCell id="8LsEZVAysBrHWdb2zd2m-12" value="" style="rounded=0;whiteSpace=wrap;html=1;strokeColor=#333333;strokeWidth=5;fillColor=#333333;" parent="8LsEZVAysBrHWdb2zd2m-1" vertex="1">
                    <mxGeometry x="70" y="343" width="120" height="10" as="geometry"/>
                </mxCell>
                <mxCell id="8LsEZVAysBrHWdb2zd2m-13" value="" style="rounded=0;whiteSpace=wrap;html=1;strokeColor=#333333;strokeWidth=5;fillColor=#333333;" parent="8LsEZVAysBrHWdb2zd2m-1" vertex="1">
                    <mxGeometry x="60" y="333" width="140" height="10" as="geometry"/>
                </mxCell>
                <mxCell id="8LsEZVAysBrHWdb2zd2m-14" value="" style="rounded=0;whiteSpace=wrap;html=1;strokeColor=#333333;strokeWidth=5;fillColor=#333333;" parent="8LsEZVAysBrHWdb2zd2m-1" vertex="1">
                    <mxGeometry x="50" y="127" width="160" height="206" as="geometry"/>
                </mxCell>
                <mxCell id="8LsEZVAysBrHWdb2zd2m-15" value="" style="endArrow=none;html=1;rounded=0;strokeWidth=5;strokeColor=#ffffff;" parent="8LsEZVAysBrHWdb2zd2m-1" edge="1">
                    <mxGeometry width="50" height="50" relative="1" as="geometry">
                        <mxPoint x="50" y="330" as="sourcePoint"/>
                        <mxPoint x="210" y="330" as="targetPoint"/>
                    </mxGeometry>
                </mxCell>
                <mxCell id="8LsEZVAysBrHWdb2zd2m-16" value="" style="endArrow=none;html=1;rounded=0;strokeWidth=5;strokeColor=#ffffff;" parent="8LsEZVAysBrHWdb2zd2m-1" edge="1">
                    <mxGeometry width="50" height="50" relative="1" as="geometry">
                        <mxPoint x="60" y="340" as="sourcePoint"/>
                        <mxPoint x="200" y="340" as="targetPoint"/>
                    </mxGeometry>
                </mxCell>
                <mxCell id="8LsEZVAysBrHWdb2zd2m-17" value="" style="endArrow=none;html=1;rounded=0;strokeWidth=5;strokeColor=#ffffff;" parent="8LsEZVAysBrHWdb2zd2m-1" edge="1">
                    <mxGeometry width="50" height="50" relative="1" as="geometry">
                        <mxPoint x="220" y="180" as="sourcePoint"/>
                        <mxPoint x="280" y="180" as="targetPoint"/>
                    </mxGeometry>
                </mxCell>
                <mxCell id="8LsEZVAysBrHWdb2zd2m-18" value="" style="endArrow=none;html=1;rounded=0;strokeWidth=5;strokeColor=#ffffff;" parent="8LsEZVAysBrHWdb2zd2m-1" edge="1">
                    <mxGeometry width="50" height="50" relative="1" as="geometry">
                        <mxPoint x="220" y="190" as="sourcePoint"/>
                        <mxPoint x="280" y="190" as="targetPoint"/>
                    </mxGeometry>
                </mxCell>
                <mxCell id="8LsEZVAysBrHWdb2zd2m-19" value="" style="endArrow=none;html=1;rounded=0;strokeWidth=5;strokeColor=#ffffff;" parent="8LsEZVAysBrHWdb2zd2m-1" edge="1">
                    <mxGeometry width="50" height="50" relative="1" as="geometry">
                        <mxPoint x="220" y="200" as="sourcePoint"/>
                        <mxPoint x="280" y="200" as="targetPoint"/>
                    </mxGeometry>
                </mxCell>
                <mxCell id="8LsEZVAysBrHWdb2zd2m-20" value="" style="endArrow=none;html=1;rounded=0;strokeWidth=5;strokeColor=#ffffff;" parent="8LsEZVAysBrHWdb2zd2m-1" edge="1">
                    <mxGeometry width="50" height="50" relative="1" as="geometry">
                        <mxPoint x="250" y="210" as="sourcePoint"/>
                        <mxPoint x="280" y="210" as="targetPoint"/>
                    </mxGeometry>
                </mxCell>
                <mxCell id="8LsEZVAysBrHWdb2zd2m-21" value="" style="endArrow=none;html=1;rounded=0;strokeWidth=5;strokeColor=#ffffff;" parent="8LsEZVAysBrHWdb2zd2m-1" edge="1">
                    <mxGeometry width="50" height="50" relative="1" as="geometry">
                        <mxPoint x="250" y="220" as="sourcePoint"/>
                        <mxPoint x="280" y="220" as="targetPoint"/>
                    </mxGeometry>
                </mxCell>
                <mxCell id="8LsEZVAysBrHWdb2zd2m-22" value="" style="endArrow=none;html=1;rounded=0;strokeWidth=5;strokeColor=#ffffff;" parent="8LsEZVAysBrHWdb2zd2m-1" edge="1">
                    <mxGeometry width="50" height="50" relative="1" as="geometry">
                        <mxPoint x="250" y="230.00000000000023" as="sourcePoint"/>
                        <mxPoint x="280" y="230.00000000000023" as="targetPoint"/>
                    </mxGeometry>
                </mxCell>
                <mxCell id="8LsEZVAysBrHWdb2zd2m-23" value="" style="endArrow=none;html=1;rounded=0;strokeWidth=5;strokeColor=#ffffff;" parent="8LsEZVAysBrHWdb2zd2m-1" edge="1">
                    <mxGeometry width="50" height="50" relative="1" as="geometry">
                        <mxPoint x="250" y="240.00000000000023" as="sourcePoint"/>
                        <mxPoint x="280" y="240.00000000000023" as="targetPoint"/>
                    </mxGeometry>
                </mxCell>
                <mxCell id="8LsEZVAysBrHWdb2zd2m-24" value="" style="endArrow=none;html=1;rounded=0;strokeWidth=5;strokeColor=#ffffff;" parent="8LsEZVAysBrHWdb2zd2m-1" edge="1">
                    <mxGeometry width="50" height="50" relative="1" as="geometry">
                        <mxPoint x="250" y="250.00000000000023" as="sourcePoint"/>
                        <mxPoint x="280" y="250.00000000000023" as="targetPoint"/>
                    </mxGeometry>
                </mxCell>
                <mxCell id="8LsEZVAysBrHWdb2zd2m-25" value="" style="endArrow=none;html=1;rounded=0;strokeWidth=5;strokeColor=#ffffff;" parent="8LsEZVAysBrHWdb2zd2m-1" edge="1">
                    <mxGeometry width="50" height="50" relative="1" as="geometry">
                        <mxPoint x="250" y="260.0000000000002" as="sourcePoint"/>
                        <mxPoint x="280" y="260.0000000000002" as="targetPoint"/>
                    </mxGeometry>
                </mxCell>
                <mxCell id="8LsEZVAysBrHWdb2zd2m-26" value="" style="endArrow=none;html=1;rounded=0;strokeWidth=5;strokeColor=#ffffff;" parent="8LsEZVAysBrHWdb2zd2m-1" edge="1">
                    <mxGeometry width="50" height="50" relative="1" as="geometry">
                        <mxPoint x="240" y="270" as="sourcePoint"/>
                        <mxPoint x="270" y="270" as="targetPoint"/>
                    </mxGeometry>
                </mxCell>
                <mxCell id="8LsEZVAysBrHWdb2zd2m-27" value="" style="endArrow=none;html=1;rounded=0;strokeWidth=5;strokeColor=#ffffff;startArrow=none;" parent="8LsEZVAysBrHWdb2zd2m-1" source="8LsEZVAysBrHWdb2zd2m-9" edge="1">
                    <mxGeometry width="50" height="50" relative="1" as="geometry">
                        <mxPoint x="230" y="280" as="sourcePoint"/>
                        <mxPoint x="260" y="280" as="targetPoint"/>
                    </mxGeometry>
                </mxCell>
                <mxCell id="8LsEZVAysBrHWdb2zd2m-28" value="" style="endArrow=none;html=1;rounded=0;strokeWidth=5;strokeColor=#ffffff;" parent="8LsEZVAysBrHWdb2zd2m-1" edge="1">
                    <mxGeometry width="50" height="50" relative="1" as="geometry">
                        <mxPoint x="220" y="290" as="sourcePoint"/>
                        <mxPoint x="250" y="290" as="targetPoint"/>
                    </mxGeometry>
                </mxCell>
                <mxCell id="8LsEZVAysBrHWdb2zd2m-29" value="" style="endArrow=none;html=1;rounded=0;strokeWidth=5;strokeColor=#ffffff;" parent="8LsEZVAysBrHWdb2zd2m-1" edge="1">
                    <mxGeometry width="50" height="50" relative="1" as="geometry">
                        <mxPoint x="110" y="230" as="sourcePoint"/>
                        <mxPoint x="200" y="230" as="targetPoint"/>
                    </mxGeometry>
                </mxCell>
                <mxCell id="8LsEZVAysBrHWdb2zd2m-30" value="" style="endArrow=none;html=1;rounded=0;strokeWidth=5;strokeColor=#ffffff;" parent="8LsEZVAysBrHWdb2zd2m-1" edge="1">
                    <mxGeometry width="50" height="50" relative="1" as="geometry">
                        <mxPoint x="110" y="250" as="sourcePoint"/>
                        <mxPoint x="200" y="250" as="targetPoint"/>
                    </mxGeometry>
                </mxCell>
                <mxCell id="8LsEZVAysBrHWdb2zd2m-31" value="" style="endArrow=none;html=1;rounded=0;strokeWidth=5;strokeColor=#ffffff;" parent="8LsEZVAysBrHWdb2zd2m-1" edge="1">
                    <mxGeometry width="50" height="50" relative="1" as="geometry">
                        <mxPoint x="110" y="180" as="sourcePoint"/>
                        <mxPoint x="150" y="180" as="targetPoint"/>
                    </mxGeometry>
                </mxCell>
                <mxCell id="8LsEZVAysBrHWdb2zd2m-32" value="" style="endArrow=none;html=1;rounded=0;strokeWidth=5;strokeColor=#ffffff;" parent="8LsEZVAysBrHWdb2zd2m-1" edge="1">
                    <mxGeometry width="50" height="50" relative="1" as="geometry">
                        <mxPoint x="110" y="190" as="sourcePoint"/>
                        <mxPoint x="150" y="190" as="targetPoint"/>
                    </mxGeometry>
                </mxCell>
                <mxCell id="8LsEZVAysBrHWdb2zd2m-33" value="" style="endArrow=none;html=1;rounded=0;strokeWidth=5;strokeColor=#ffffff;" parent="8LsEZVAysBrHWdb2zd2m-1" edge="1">
                    <mxGeometry width="50" height="50" relative="1" as="geometry">
                        <mxPoint x="110" y="200" as="sourcePoint"/>
                        <mxPoint x="150" y="200" as="targetPoint"/>
                    </mxGeometry>
                </mxCell>
                <mxCell id="8LsEZVAysBrHWdb2zd2m-34" value="" style="endArrow=none;html=1;rounded=0;strokeWidth=5;strokeColor=#ffffff;" parent="8LsEZVAysBrHWdb2zd2m-1" edge="1">
                    <mxGeometry width="50" height="50" relative="1" as="geometry">
                        <mxPoint x="110" y="210" as="sourcePoint"/>
                        <mxPoint x="150" y="210" as="targetPoint"/>
                    </mxGeometry>
                </mxCell>
                <mxCell id="8LsEZVAysBrHWdb2zd2m-35" value="" style="endArrow=none;html=1;rounded=0;strokeWidth=5;strokeColor=#ffffff;" parent="8LsEZVAysBrHWdb2zd2m-1" edge="1">
                    <mxGeometry width="50" height="50" relative="1" as="geometry">
                        <mxPoint x="110" y="220" as="sourcePoint"/>
                        <mxPoint x="150" y="220" as="targetPoint"/>
                    </mxGeometry>
                </mxCell>
                <mxCell id="8LsEZVAysBrHWdb2zd2m-36" value="" style="endArrow=none;html=1;rounded=0;strokeWidth=5;strokeColor=#ffffff;" parent="8LsEZVAysBrHWdb2zd2m-1" edge="1">
                    <mxGeometry width="50" height="50" relative="1" as="geometry">
                        <mxPoint x="60" y="300" as="sourcePoint"/>
                        <mxPoint x="90" y="300" as="targetPoint"/>
                    </mxGeometry>
                </mxCell>
                <mxCell id="8LsEZVAysBrHWdb2zd2m-37" value="" style="endArrow=none;html=1;rounded=0;strokeWidth=5;strokeColor=#ffffff;" parent="8LsEZVAysBrHWdb2zd2m-1" edge="1">
                    <mxGeometry width="50" height="50" relative="1" as="geometry">
                        <mxPoint x="60" y="290" as="sourcePoint"/>
                        <mxPoint x="90" y="290" as="targetPoint"/>
                    </mxGeometry>
                </mxCell>
                <mxCell id="8LsEZVAysBrHWdb2zd2m-38" value="" style="endArrow=none;html=1;rounded=0;strokeWidth=5;strokeColor=#ffffff;" parent="8LsEZVAysBrHWdb2zd2m-1" edge="1">
                    <mxGeometry width="50" height="50" relative="1" as="geometry">
                        <mxPoint x="60" y="280" as="sourcePoint"/>
                        <mxPoint x="90" y="280" as="targetPoint"/>
                    </mxGeometry>
                </mxCell>
                <mxCell id="8LsEZVAysBrHWdb2zd2m-39" value="" style="endArrow=none;html=1;rounded=0;strokeWidth=5;strokeColor=#ffffff;" parent="8LsEZVAysBrHWdb2zd2m-1" edge="1">
                    <mxGeometry width="50" height="50" relative="1" as="geometry">
                        <mxPoint x="60" y="270" as="sourcePoint"/>
                        <mxPoint x="90" y="270" as="targetPoint"/>
                    </mxGeometry>
                </mxCell>
                <mxCell id="8LsEZVAysBrHWdb2zd2m-40" value="" style="endArrow=none;html=1;rounded=0;strokeWidth=5;strokeColor=#ffffff;" parent="8LsEZVAysBrHWdb2zd2m-1" edge="1">
                    <mxGeometry width="50" height="50" relative="1" as="geometry">
                        <mxPoint x="60" y="260" as="sourcePoint"/>
                        <mxPoint x="90" y="260" as="targetPoint"/>
                    </mxGeometry>
                </mxCell>
                <mxCell id="8LsEZVAysBrHWdb2zd2m-41" value="" style="endArrow=none;html=1;rounded=0;strokeWidth=5;strokeColor=#ffffff;" parent="8LsEZVAysBrHWdb2zd2m-1" edge="1">
                    <mxGeometry width="50" height="50" relative="1" as="geometry">
                        <mxPoint x="50" y="130" as="sourcePoint"/>
                        <mxPoint x="210" y="130" as="targetPoint"/>
                    </mxGeometry>
                </mxCell>
                <mxCell id="8LsEZVAysBrHWdb2zd2m-42" value="" style="endArrow=none;html=1;rounded=0;strokeWidth=5;strokeColor=#ffffff;" parent="8LsEZVAysBrHWdb2zd2m-1" edge="1">
                    <mxGeometry width="50" height="50" relative="1" as="geometry">
                        <mxPoint x="50" y="140" as="sourcePoint"/>
                        <mxPoint x="210" y="140" as="targetPoint"/>
                    </mxGeometry>
                </mxCell>
                <mxCell id="8LsEZVAysBrHWdb2zd2m-43" value="" style="endArrow=none;html=1;rounded=0;strokeWidth=5;strokeColor=#ffffff;" parent="8LsEZVAysBrHWdb2zd2m-1" edge="1">
                    <mxGeometry width="50" height="50" relative="1" as="geometry">
                        <mxPoint x="50" y="150" as="sourcePoint"/>
                        <mxPoint x="210" y="150" as="targetPoint"/>
                    </mxGeometry>
                </mxCell>
                <mxCell id="8LsEZVAysBrHWdb2zd2m-44" value="" style="endArrow=none;html=1;rounded=0;strokeWidth=5;strokeColor=#ffffff;" parent="8LsEZVAysBrHWdb2zd2m-1" edge="1">
                    <mxGeometry width="50" height="50" relative="1" as="geometry">
                        <mxPoint x="60" y="310" as="sourcePoint"/>
                        <mxPoint x="90" y="310" as="targetPoint"/>
                    </mxGeometry>
                </mxCell>
                <mxCell id="8LsEZVAysBrHWdb2zd2m-45" value="" style="endArrow=none;html=1;rounded=0;strokeWidth=5;strokeColor=#ffffff;" parent="8LsEZVAysBrHWdb2zd2m-1" edge="1">
                    <mxGeometry width="50" height="50" relative="1" as="geometry">
                        <mxPoint x="60" y="320" as="sourcePoint"/>
                        <mxPoint x="90" y="320" as="targetPoint"/>
                    </mxGeometry>
                </mxCell>
                <mxCell id="8LsEZVAysBrHWdb2zd2m-46" value="" style="endArrow=none;html=1;rounded=0;strokeWidth=5;strokeColor=#ffffff;startArrow=none;" parent="8LsEZVAysBrHWdb2zd2m-1" edge="1">
                    <mxGeometry width="50" height="50" relative="1" as="geometry">
                        <mxPoint x="110" y="170" as="sourcePoint"/>
                        <mxPoint x="150" y="170" as="targetPoint"/>
                    </mxGeometry>
                </mxCell>
                <mxCell id="8LsEZVAysBrHWdb2zd2m-47" value="" style="endArrow=none;html=1;rounded=0;strokeWidth=5;strokeColor=#ffffff;" parent="8LsEZVAysBrHWdb2zd2m-1" edge="1">
                    <mxGeometry width="50" height="50" relative="1" as="geometry">
                        <mxPoint x="110" y="160" as="sourcePoint"/>
                        <mxPoint x="150" y="160" as="targetPoint"/>
                    </mxGeometry>
                </mxCell>
                <mxCell id="8LsEZVAysBrHWdb2zd2m-48" value="" style="endArrow=none;html=1;rounded=0;strokeWidth=5;strokeColor=#ffffff;" parent="8LsEZVAysBrHWdb2zd2m-1" edge="1">
                    <mxGeometry width="50" height="50" relative="1" as="geometry">
                        <mxPoint x="50" y="110.13" as="sourcePoint"/>
                        <mxPoint x="70" y="110.13" as="targetPoint"/>
                    </mxGeometry>
                </mxCell>
                <mxCell id="8LsEZVAysBrHWdb2zd2m-49" value="" style="endArrow=none;html=1;rounded=0;strokeWidth=5;strokeColor=#ffffff;" parent="8LsEZVAysBrHWdb2zd2m-1" edge="1">
                    <mxGeometry width="50" height="50" relative="1" as="geometry">
                        <mxPoint x="40" y="100.13" as="sourcePoint"/>
                        <mxPoint x="60" y="100.13" as="targetPoint"/>
                    </mxGeometry>
                </mxCell>
                <mxCell id="8LsEZVAysBrHWdb2zd2m-50" value="" style="endArrow=none;html=1;rounded=0;strokeWidth=5;strokeColor=#ffffff;" parent="8LsEZVAysBrHWdb2zd2m-1" edge="1">
                    <mxGeometry width="50" height="50" relative="1" as="geometry">
                        <mxPoint x="40" y="90.13" as="sourcePoint"/>
                        <mxPoint x="60" y="90.13" as="targetPoint"/>
                    </mxGeometry>
                </mxCell>
                <mxCell id="8LsEZVAysBrHWdb2zd2m-51" value="" style="endArrow=none;html=1;rounded=0;strokeWidth=5;strokeColor=#ffffff;" parent="8LsEZVAysBrHWdb2zd2m-1" edge="1">
                    <mxGeometry width="50" height="50" relative="1" as="geometry">
                        <mxPoint x="50" y="80.13" as="sourcePoint"/>
                        <mxPoint x="70" y="80.13" as="targetPoint"/>
                    </mxGeometry>
                </mxCell>
                <mxCell id="8LsEZVAysBrHWdb2zd2m-52" value="" style="endArrow=none;html=1;rounded=0;strokeWidth=5;strokeColor=#ffffff;" parent="8LsEZVAysBrHWdb2zd2m-1" edge="1">
                    <mxGeometry width="50" height="50" relative="1" as="geometry">
                        <mxPoint x="60" y="70.13" as="sourcePoint"/>
                        <mxPoint x="80" y="70.13" as="targetPoint"/>
                    </mxGeometry>
                </mxCell>
                <mxCell id="8LsEZVAysBrHWdb2zd2m-53" value="" style="endArrow=none;html=1;rounded=0;strokeWidth=5;strokeColor=#ffffff;" parent="8LsEZVAysBrHWdb2zd2m-1" edge="1">
                    <mxGeometry width="50" height="50" relative="1" as="geometry">
                        <mxPoint x="70" y="60.129999999999995" as="sourcePoint"/>
                        <mxPoint x="90" y="60.129999999999995" as="targetPoint"/>
                    </mxGeometry>
                </mxCell>
                <mxCell id="8LsEZVAysBrHWdb2zd2m-54" value="" style="endArrow=none;html=1;rounded=0;strokeWidth=5;strokeColor=#ffffff;" parent="8LsEZVAysBrHWdb2zd2m-1" edge="1">
                    <mxGeometry width="50" height="50" relative="1" as="geometry">
                        <mxPoint x="90" y="70.13" as="sourcePoint"/>
                        <mxPoint x="100" y="70.13" as="targetPoint"/>
                    </mxGeometry>
                </mxCell>
                <mxCell id="8LsEZVAysBrHWdb2zd2m-55" value="" style="endArrow=none;html=1;rounded=0;strokeWidth=5;strokeColor=#ffffff;" parent="8LsEZVAysBrHWdb2zd2m-1" edge="1">
                    <mxGeometry width="50" height="50" relative="1" as="geometry">
                        <mxPoint x="100" y="60.129999999999995" as="sourcePoint"/>
                        <mxPoint x="110" y="60.129999999999995" as="targetPoint"/>
                    </mxGeometry>
                </mxCell>
                <mxCell id="8LsEZVAysBrHWdb2zd2m-56" value="" style="endArrow=none;html=1;rounded=0;strokeWidth=5;strokeColor=#ffffff;" parent="8LsEZVAysBrHWdb2zd2m-1" edge="1">
                    <mxGeometry width="50" height="50" relative="1" as="geometry">
                        <mxPoint x="100" y="50.129999999999995" as="sourcePoint"/>
                        <mxPoint x="120" y="50.129999999999995" as="targetPoint"/>
                    </mxGeometry>
                </mxCell>
                <mxCell id="8LsEZVAysBrHWdb2zd2m-57" value="" style="endArrow=none;html=1;rounded=0;strokeWidth=5;strokeColor=#ffffff;" parent="8LsEZVAysBrHWdb2zd2m-1" edge="1">
                    <mxGeometry width="50" height="50" relative="1" as="geometry">
                        <mxPoint x="120" y="40" as="sourcePoint"/>
                        <mxPoint x="150" y="40" as="targetPoint"/>
                    </mxGeometry>
                </mxCell>
                <mxCell id="8LsEZVAysBrHWdb2zd2m-58" value="" style="endArrow=none;html=1;rounded=0;strokeWidth=5;strokeColor=#ffffff;" parent="8LsEZVAysBrHWdb2zd2m-1" edge="1">
                    <mxGeometry width="50" height="50" relative="1" as="geometry">
                        <mxPoint x="150" y="50.129999999999995" as="sourcePoint"/>
                        <mxPoint x="170" y="50.129999999999995" as="targetPoint"/>
                    </mxGeometry>
                </mxCell>
                <mxCell id="8LsEZVAysBrHWdb2zd2m-59" value="" style="endArrow=none;html=1;rounded=0;strokeWidth=5;strokeColor=#ffffff;" parent="8LsEZVAysBrHWdb2zd2m-1" edge="1">
                    <mxGeometry width="50" height="50" relative="1" as="geometry">
                        <mxPoint x="160" y="60.129999999999995" as="sourcePoint"/>
                        <mxPoint x="180" y="60.129999999999995" as="targetPoint"/>
                    </mxGeometry>
                </mxCell>
                <mxCell id="8LsEZVAysBrHWdb2zd2m-60" value="" style="endArrow=none;html=1;rounded=0;strokeWidth=5;entryX=0.699;entryY=0.167;entryDx=0;entryDy=0;entryPerimeter=0;strokeColor=#ffffff;" parent="8LsEZVAysBrHWdb2zd2m-1" edge="1">
                    <mxGeometry width="50" height="50" relative="1" as="geometry">
                        <mxPoint x="170" y="70.13" as="sourcePoint"/>
                        <mxPoint x="200.00099999999998" y="70.06299999999987" as="targetPoint"/>
                    </mxGeometry>
                </mxCell>
                <mxCell id="8LsEZVAysBrHWdb2zd2m-61" value="" style="endArrow=none;html=1;rounded=0;strokeWidth=5;strokeColor=#ffffff;" parent="8LsEZVAysBrHWdb2zd2m-1" edge="1">
                    <mxGeometry width="50" height="50" relative="1" as="geometry">
                        <mxPoint x="190" y="80.13" as="sourcePoint"/>
                        <mxPoint x="210" y="80.13" as="targetPoint"/>
                    </mxGeometry>
                </mxCell>
                <mxCell id="8LsEZVAysBrHWdb2zd2m-62" value="" style="endArrow=none;html=1;rounded=0;strokeWidth=5;strokeColor=#ffffff;" parent="8LsEZVAysBrHWdb2zd2m-1" edge="1">
                    <mxGeometry width="50" height="50" relative="1" as="geometry">
                        <mxPoint x="200" y="90.13" as="sourcePoint"/>
                        <mxPoint x="220" y="90.13" as="targetPoint"/>
                    </mxGeometry>
                </mxCell>
                <mxCell id="8LsEZVAysBrHWdb2zd2m-63" value="" style="endArrow=none;html=1;rounded=0;strokeWidth=5;strokeColor=#ffffff;" parent="8LsEZVAysBrHWdb2zd2m-1" edge="1">
                    <mxGeometry width="50" height="50" relative="1" as="geometry">
                        <mxPoint x="200" y="100.13" as="sourcePoint"/>
                        <mxPoint x="220" y="100.13" as="targetPoint"/>
                    </mxGeometry>
                </mxCell>
                <mxCell id="8LsEZVAysBrHWdb2zd2m-64" value="" style="endArrow=none;html=1;rounded=0;strokeWidth=5;strokeColor=#ffffff;" parent="8LsEZVAysBrHWdb2zd2m-1" edge="1">
                    <mxGeometry width="50" height="50" relative="1" as="geometry">
                        <mxPoint x="190" y="110.13" as="sourcePoint"/>
                        <mxPoint x="210" y="110.13" as="targetPoint"/>
                    </mxGeometry>
                </mxCell>
                <mxCell id="8LsEZVAysBrHWdb2zd2m-65" value="" style="endArrow=none;html=1;rounded=0;strokeWidth=5;strokeColor=#ffffff;" parent="8LsEZVAysBrHWdb2zd2m-1" edge="1">
                    <mxGeometry width="50" height="50" relative="1" as="geometry">
                        <mxPoint x="110" y="260" as="sourcePoint"/>
                        <mxPoint x="150" y="260" as="targetPoint"/>
                    </mxGeometry>
                </mxCell>
                <mxCell id="8LsEZVAysBrHWdb2zd2m-66" value="" style="endArrow=none;html=1;rounded=0;strokeWidth=5;strokeColor=#ffffff;" parent="8LsEZVAysBrHWdb2zd2m-1" edge="1">
                    <mxGeometry width="50" height="50" relative="1" as="geometry">
                        <mxPoint x="110" y="270" as="sourcePoint"/>
                        <mxPoint x="150" y="270" as="targetPoint"/>
                    </mxGeometry>
                </mxCell>
                <mxCell id="8LsEZVAysBrHWdb2zd2m-67" value="" style="endArrow=none;html=1;rounded=0;strokeWidth=5;strokeColor=#ffffff;" parent="8LsEZVAysBrHWdb2zd2m-1" edge="1">
                    <mxGeometry width="50" height="50" relative="1" as="geometry">
                        <mxPoint x="110" y="280" as="sourcePoint"/>
                        <mxPoint x="150" y="280" as="targetPoint"/>
                    </mxGeometry>
                </mxCell>
                <mxCell id="8LsEZVAysBrHWdb2zd2m-68" value="" style="endArrow=none;html=1;rounded=0;strokeWidth=5;strokeColor=#ffffff;" parent="8LsEZVAysBrHWdb2zd2m-1" edge="1">
                    <mxGeometry width="50" height="50" relative="1" as="geometry">
                        <mxPoint x="110" y="290" as="sourcePoint"/>
                        <mxPoint x="150" y="290" as="targetPoint"/>
                    </mxGeometry>
                </mxCell>
                <mxCell id="8LsEZVAysBrHWdb2zd2m-69" value="" style="endArrow=none;html=1;rounded=0;strokeWidth=5;strokeColor=#ffffff;" parent="8LsEZVAysBrHWdb2zd2m-1" edge="1">
                    <mxGeometry width="50" height="50" relative="1" as="geometry">
                        <mxPoint x="110" y="300" as="sourcePoint"/>
                        <mxPoint x="150" y="300" as="targetPoint"/>
                    </mxGeometry>
                </mxCell>
                <mxCell id="8LsEZVAysBrHWdb2zd2m-70" value="" style="endArrow=none;html=1;rounded=0;strokeWidth=5;strokeColor=#ffffff;" parent="8LsEZVAysBrHWdb2zd2m-1" edge="1">
                    <mxGeometry width="50" height="50" relative="1" as="geometry">
                        <mxPoint x="110" y="320" as="sourcePoint"/>
                        <mxPoint x="150" y="320" as="targetPoint"/>
                    </mxGeometry>
                </mxCell>
                <mxCell id="8LsEZVAysBrHWdb2zd2m-71" value="" style="endArrow=none;html=1;rounded=0;strokeWidth=5;strokeColor=#ffffff;" parent="8LsEZVAysBrHWdb2zd2m-1" edge="1">
                    <mxGeometry width="50" height="50" relative="1" as="geometry">
                        <mxPoint x="110" y="310" as="sourcePoint"/>
                        <mxPoint x="150" y="310" as="targetPoint"/>
                    </mxGeometry>
                </mxCell>
                <mxCell id="8LsEZVAysBrHWdb2zd2m-72" value="" style="endArrow=none;html=1;rounded=0;strokeWidth=5;strokeColor=#ffffff;" parent="8LsEZVAysBrHWdb2zd2m-1" edge="1">
                    <mxGeometry width="50" height="50" relative="1" as="geometry">
                        <mxPoint x="110" y="240.00000000000006" as="sourcePoint"/>
                        <mxPoint x="200" y="240" as="targetPoint"/>
                    </mxGeometry>
                </mxCell>
                <mxCell id="8LsEZVAysBrHWdb2zd2m-73" value="" style="endArrow=none;html=1;rounded=0;strokeWidth=5;strokeColor=#ffffff;" parent="8LsEZVAysBrHWdb2zd2m-1" edge="1">
                    <mxGeometry width="50" height="50" relative="1" as="geometry">
                        <mxPoint x="70" y="350" as="sourcePoint"/>
                        <mxPoint x="190" y="350" as="targetPoint"/>
                    </mxGeometry>
                </mxCell>
                <mxCell id="8LsEZVAysBrHWdb2zd2m-74" value="" style="endArrow=none;html=1;rounded=0;strokeWidth=5;strokeColor=#ffffff;" parent="8LsEZVAysBrHWdb2zd2m-1" edge="1">
                    <mxGeometry width="50" height="50" relative="1" as="geometry">
                        <mxPoint x="230" y="280" as="sourcePoint"/>
                        <mxPoint x="260" y="280" as="targetPoint"/>
                    </mxGeometry>
                </mxCell>
            </root>
        </mxGraphModel>
    </diagram>
</mxfile>
